<svg width="280" height="239" fill="none" xmlns="http://www.w3.org/2000/svg"><g clip-path="url(#clip0)"><path d="M59 30c9 1 13-5 17-13 12-22 38-20 47-7 7 10 20 8 31 4s29-7 44-3c13 4 18 18 29 17 26-2 39 24 34 34-3 8-4 16-2 23 3 8 9 14 14 21s9 16 6 24c-2 7-8 12-12 18-12 19 0 49-16 65-12 11-31 8-47 11-14 1-26 7-40 9-27 5-54-5-82-5-10-1-20 1-29-2-13-3-23-13-28-25-6-17 0-36-7-52-5-14-19-24-18-39 1-9 7-16 11-24 6-12-2-59 48-56zm80-21c-2 0-4 1-4 3s2 3 4 3c8 1 8-2 8-4 0-3-5-2-8-2zm80 14c2 2 5 3 8 3l2-1v-2l-2-1-2-1v-1c-2-1-9 1-6 3zm14 3h2l1-1-1-1h-3c-1 1 0 2 1 2zm32 63l1 3 4 5 2 1 2-1c2-1 3-3 3-5 1-2-1-5-2-7l-3-4c-3-1-4 0-5 2s-3 4-2 6zM5 150v6l1 2 2 2 5-1 1-3v-3l-1-2-1-1H5zm78 83l-1 1 1 2c4 3 9 3 15 3h1c2-1 2-2 2-3l-1-1c-4-4-11-3-17-2zm105-2c-5 3 0 6 6 4l10-3 7-3c0-4-7-3-11-3-4 1-8 2-12 5z" fill="#ECF3FF"/><path d="M99 221c13 0 23-1 23-2 0-2-10-3-23-3-12 0-23 1-23 3 0 1 11 2 23 2zM216 221c13 0 23-1 23-2 0-2-10-3-23-3-12 0-22 1-22 3 0 1 10 2 22 2z" fill="#C8DBFB"/><path d="M264 69v-2" stroke="#C8DBFB" stroke-linecap="round" stroke-linejoin="round"/><path d="M264 65c-4-14-17-12-29-12H27C7 53 9 81 25 81c8 0 12 17-3 17-10 0-10 12-4 14" stroke="#C8DBFB" stroke-linecap="round" stroke-linejoin="round" stroke-dasharray="3.99 3.99"/><path d="M19 112h2" stroke="#C8DBFB" stroke-linecap="round" stroke-linejoin="round"/><path d="M23 112a3 3 0 11-6 1 3 3 0 016-1zM267 70a3 3 0 11-5-1 3 3 0 015 1zM52 91l-2 7-6 14-8 9-1-20c0-6 2-10 0-16l-1-2-3-8c0-4 1-8 4-10h7c3 1 5 3 6 5 4 6 5 14 4 21z" fill="#5193F4"/><path d="M41 71c4 7 5 14 5 22 1 8-1 16-5 23" stroke="#0B43A4" stroke-miterlimit="10" stroke-linecap="round" stroke-linejoin="round"/><path d="M41 192c-4-3-7-6-9-10l-6-10-3-6 1-7c2-2 5-2 7-1 3 1 5 2 6 5 2 2 3 6 3 9l1 9 3 8 4 9c-2 1-6-5-7-6z" fill="#00AD9F"/><path d="M29 162c3 1 5 5 5 8 1 4 1 8 3 11 3 7 7 14 10 16" stroke="#00AD9F" stroke-miterlimit="10" stroke-linecap="round" stroke-linejoin="round"/><path d="M25 183c-3-1-7-2-8 1-2 1-1 4 0 6l4 5 4 1 11 1c5 0 10 2 14 5-5-9-16-16-25-19z" fill="#0056EC"/><path d="M20 188l10 2 18 9" stroke="#0B43A4" stroke-miterlimit="10" stroke-linecap="round" stroke-linejoin="round"/><path d="M54 164c-4-5-9-9-16-10H24c-5-1-10-5-12-9-3-4-3-10-2-15 1-3 4-7 7-8h6l6 2 9 10a85 85 0 0013 16c3 3 2 11 3 14z" fill="#52D2BC"/><path d="M16 133c12 5 24 12 32 21" stroke="#00AD9F" stroke-miterlimit="10" stroke-linecap="round" stroke-linejoin="round"/><path opacity=".2" d="M49 153s-17-14-20-29l9 10 10 12 1 7zM50 98l-6 14-8 9-1-20c0-6 2-10 0-16a168 168 0 00-1-2c4 2 6 6 6 10v10 4c0 2 3 2 3 0l1-5 2-5 2-1 2 2z" fill="#5275A0"/><path d="M49 149c-2-14-4-16-3-19 2-5 1-9 2-14 2-4 3-9 2-14-1-1-1-3-3-3l-2 1-2 4-1 6c0 2-3 2-3 0v-5-10c0-4-2-8-6-9l-4-1c-4 1-5 5-5 9l3 7c2 5 1 10 1 16 1 16 21 32 21 32z" fill="#7EE8D4"/><path d="M31 90c2 10 4 20 8 29 1 3 2 7 8 14" stroke="#00AD9F" stroke-miterlimit="10" stroke-linecap="round" stroke-linejoin="round"/><path d="M109 92l-6-7a62 62 0 00-6-6L81 69c-3-1-7-2-9-5-3-2-5-6-4-9 0-3 2-5 5-6h8c7 2 13 7 17 13a68 68 0 019 20c1 3 3 8 2 10z" fill="#5193F4"/><path d="M76 55c8 2 14 7 20 12 5 6 10 13 12 21" stroke="#0B43A4" stroke-miterlimit="10" stroke-linecap="round" stroke-linejoin="round"/><path opacity=".2" d="M103 85v3c-2-1-3-4-4-7l-1-9V62l7 15a61 61 0 00-2 8z" fill="#5275A0"/><path d="M117 57l-4 8a63 63 0 00-8 18v5c-4-1-5-12-6-15 0-6 1-12 3-17l5-7c2-1 5-2 7 0l3 3v5z" fill="#52D2BC"/><path d="M104 85c-3-6-1-19 2-27 2-2 3-5 6-6" stroke="#00AD9F" stroke-miterlimit="10" stroke-linecap="round" stroke-linejoin="round"/><path opacity=".2" d="M117 57l-4 8-3 4-1-6c-1-3 0-7 3-9l5-2v5z" fill="#5275A0"/><path d="M139 82l-1 4c-2 3-5 7-11 9v-7c0-7-8-11-12-16-2-2-4-5-5-9 0-3 1-7 4-9 2-2 6-2 8-2 5 1 10 3 13 6v1c2 2 3 5 3 8 1 5 2 10 1 15z" fill="#00AD9F"/><path d="M116 58c5 2 10 5 13 10 4 7 3 16 0 23" stroke="#00AD9F" stroke-miterlimit="10" stroke-linecap="round" stroke-linejoin="round"/><path d="M224 126c3-5 1-12 3-18 0-5 3-9 7-12 2-2 5-4 8-2h2v-1c1-3-1-7 1-10 0-2 2-3 3-4 3-2 7-3 10-3l3 1c2 0 2 2 2 4l-2 4c-3 5-8 9-9 14v2l1 2c1 2-1 4-3 5l-5 1-4 2c-2 1 0 4 0 7 0 2-2 3-3 4l-7 5-6 4-3 6" fill="#52D2BC"/><path d="M228 121l3-8 7-10 6-6 4-6 2-3 3-3 4-4" stroke="#00AD9F" stroke-miterlimit="10" stroke-linecap="round" stroke-linejoin="round"/><path d="M270 130l-4 7-4 4-3 1-12 3c-5 0-11-1-17 1a17 17 0 00-10 7l1-4a40 40 0 0113-23c3-4 8-7 13-10 4-2 9-3 13-3 5 1 9 4 10 8v9z" fill="#5193F4"/><path d="M225 145c4-6 10-11 18-14l13-3c5-1 10-4 12-8" stroke="#0B43A4" stroke-miterlimit="10" stroke-linecap="round" stroke-linejoin="round"/><path d="M227 191c1-6 4-12 8-17 4-4 8-8 13-10l5-1c1 1 3 2 3 4l-2 3c-3 4-8 6-12 8-7 5-13 10-16 18" fill="#52D2BC"/><path d="M230 186c4-10 15-18 22-19" stroke="#00AD9F" stroke-miterlimit="10" stroke-linecap="round" stroke-linejoin="round"/><path d="M225 197c0-2 3-4 4-5l15-9 7-1c3 1 5 3 5 5 0 3-2 5-4 6l-6 1-11-1c-3 0-8 1-10 4z" fill="#00AD9F"/><path d="M228 193c8-4 18-6 26-5" stroke="#00AD9F" stroke-miterlimit="10" stroke-linecap="round" stroke-linejoin="round"/><path opacity=".2" d="M139 82l-1 4c-2-6-5-13-5-21 0-2 0-5 2-7v1c2 2 3 5 3 8 1 5 2 10 1 15z" fill="#5275A0"/><path d="M164 82c5-2 11-3 16-6l4-4 1-4-1-5c0-2 1-2 2-3 1-3 2-6 1-8l-4-8c-1-2-2-5-1-7-5 0-9 3-13 3l-10 1c-6 2-11 7-12 13-3 0-6 1-8 3s-3 5-3 8c1 22 14 34 14 34l14-17z" fill="#7EE8D4"/><path d="M152 82c-1-6 1-11 3-16l8-14c4-4 8-8 13-10M157 46c-1 5 0 10 1 15M159 59c5-3 14-5 20-5M145 60c7 3 7 13 7 16M154 69c5-3 13-4 18-3M168 43c-2 2-2 4-2 6M168 48c2-2 5-2 9-1" stroke="#00AD9F" stroke-miterlimit="10" stroke-linecap="round" stroke-linejoin="round"/><path d="M36 58l7-4 1-1v-2l-2-1-4 2c-3 3-2 6-2 6zM56 71c1 1 3 2 5 1l2-1v-2H52l4 2zM68 43l-2-2 2-2 3 2c3 2 2 6 2 6l-5-4zM70 35l-2-1v-1c0-1 1-2 2-1 5 1 6 4 6 4l-6-1zM85 42l5-2 1-2-1-2h-2l-2 2-1 4z" fill="#4A49CA"/><path d="M50 114l-15-13c-2-2-5-4-6-7-4-7-2-15 3-21 5-5 11-8 18-11l21-7c4-2 8-5 9-9 1-3 0-6-2-8-1-2-4-4-7-4M88 38c-1 4-6 6-9 10" stroke="#0B43A4" stroke-miterlimit="10" stroke-linecap="round" stroke-linejoin="round"/><path d="M70 42l3 4c2 2 2 6-1 8M44 65c4 3 10 5 15 5M35 71c-2-6 0-13 5-17" stroke="#0B43A4" stroke-miterlimit="10" stroke-linecap="round" stroke-linejoin="round"/><path d="M187 47l1-3h1c4 2 4 8 4 8s-4 0-6-5zM187 59c-3 5 7 4 10 1 0 0-8-5-10-1zM199 47v-3l2-1 3 2c3 4 1 7 1 7l-6-5zM237 59v-2l2-1 1 1 2 2c2 2 1 5 1 5l-6-5zM225 68c-2-2-4-2-6-1l-2 1 1 3 3 3 8 1s0-4-4-7z" fill="#4A49CA"/><path d="M190 48c2 4 6 8 10 10l14 2 14 2c5 1 9 4 11 8 3 5 1 11-3 16l-11 13-2 7c0 4 3 6 6 9M201 46c3 3 6 9 7 14" stroke="#0B43A4" stroke-miterlimit="10" stroke-linecap="round" stroke-linejoin="round"/><path d="M191 60h5l6-2M240 59c2 2 3 4 3 7 0 2-1 5-3 7M222 70l10 8 7 3" stroke="#0B43A4" stroke-miterlimit="10" stroke-linecap="round" stroke-linejoin="round"/><path opacity=".2" d="M262 141l-3 1-12 3c-5 0-11-1-17 1-3 0-5 2-7 4-1-4 9-9 12-11 5-2 11-3 17-3l8 3 2 2z" fill="#5275A0"/><path d="M252 139c3 0 5 0 8 2 2 1 3 4 3 7-1 3-4 4-7 5l-9-1c-6-2-13-2-20-1l-4 1c-1-4 9-9 12-10 5-3 11-4 17-3z" fill="#52D2BC"/><path d="M225 150c5-5 18-7 26-7l8 3" stroke="#00AD9F" stroke-miterlimit="10" stroke-linecap="round" stroke-linejoin="round"/><path d="M216 101h48a10 10 0 010 21h-33M72 137H38a6 6 0 100 11h10" stroke="#0B43A4" stroke-miterlimit="10" stroke-linecap="round" stroke-linejoin="round" stroke-dasharray="4 4"/><path d="M18 162c-11 0-11 17 3 17h215c9 0 10-14-2-14-22 0-22-11-10-11" stroke="#C8DBFB" stroke-miterlimit="10" stroke-linecap="round" stroke-linejoin="round" stroke-dasharray="4 4"/><path d="M21 162a3 3 0 11-6 1 3 3 0 016-1z" fill="#5193F4"/><path d="M229 154a3 3 0 11-5 1 3 3 0 015-1z" fill="#0B43A4"/><path opacity=".2" d="M232 204H55c-3 0-4-2-4-4L50 82c0-2 2-4 5-4h177c2 0 4 2 4 4l1 117c0 3-2 5-5 5z" fill="#5275A0"/><path d="M229 202H51c-2 0-4-2-4-4V80c0-2 2-4 4-4l178-1c2 0 4 2 4 5v117c0 3-2 5-4 5z" fill="#fff"/><path d="M228 75L52 76c-3 0-5 2-5 4v4h186v-4c0-3-2-5-5-5z" fill="#0056EC"/><path d="M52 202h27L78 84H47v113c0 3 2 5 5 5z" fill="#C8DBFB"/><path d="M229 77c1 0 3 1 3 3v117l-1 2-2 1-178 1-3-3V80l1-2 2-1h178zm0-2L51 76c-2 0-4 2-4 4v118c0 2 2 4 4 4h178c2-1 4-2 4-5V80c0-3-2-5-4-5z" fill="#0056EC"/><path d="M74 193H53l-1-2 1-2h21l2 2-2 2zM72 113H54c-2 0-3-1-3-3V93c0-2 1-3 3-3h17c2 0 3 1 4 3v17c0 2-2 3-3 3z" fill="#fff"/><path d="M147 166H85l-2-2v-1l2-2h62l2 2v1l-2 2zM143 96H95l-2-2 2-2h48l2 2-2 2zM219 145h-64l-2-2c0-2 1-2 2-2l64-1c1 0 2 1 2 3l-2 2zM147 175H86c-2 0-3-1-3-2l2-2h62l2 2-2 2zM147 185H86c-2 0-3-1-3-2v-1c0-1 1-2 3-2h61l2 2c0 2-1 3-2 3zM218 191h-62c-2 0-3-2-3-4v-26c0-2 1-4 3-4h62c2 0 3 2 3 4l1 26c0 2-2 4-4 4zM57 80a2 2 0 11-3 0 2 2 0 013 0zM62 81a2 2 0 100-3 2 2 0 000 3zM70 80a2 2 0 11-3 0 2 2 0 013 0zM90 94a4 4 0 10-8 0 4 4 0 008 0z" fill="#C8DBFB"/><path d="M73 117H53v-1-1h20l1 1-1 1zM73 121H53v-1-1h20l1 1-1 1z" fill="#fff"/><path d="M95 128h-6v23h-4c-2 0-3-1-3-3v-42c0-2 1-3 3-3h10v25z" fill="#C8DBFB"/><path d="M130 103c2 0 3 2 3 3v42a3 3 0 01-3 3H85l-3-3v-41a3 3 0 013-3l45-1zm0 0H85c-2 0-3 2-3 4v41c0 2 1 3 3 3h45c2 0 4-1 4-3v-42c0-2-2-3-4-3zM205 137l-60-14c-2 0-3-2-2-4l6-30c1-2 3-3 5-3l60 14c1 0 3 2 2 4l-6 30c-1 2-3 3-5 3z" fill="#C8DBFB"/><path d="M89 218h-8l-2-11h12l-2 11z" fill="#0056EC"/><path d="M81 207v3l1-2c1 0 0 5 2 5l1-4h1v2c0 2 2 1 2-1v-3h-7z" fill="#C8DBFB"/><path d="M79 214h-1l-1-1c-1-2 2-5 2-6v1s-2 3-1 5h1c3 0 8-5 8-5h1c-1 0-6 6-9 6z" fill="#0C2340"/><path opacity=".2" d="M167 67c-12 0-28 9-22 30 0 2 1 4 2 3v-4c2-16 6-18 12-18h15c3 0 10 3 11 16h4c0-9-2-26-22-27z" fill="#5275A0"/><path d="M167 66c-12-1-28 8-22 30l2-1c2-17 6-19 12-19h15c3 0 10 4 11 16h4c0-9-2-26-22-26z" fill="#EF832B"/><path d="M165 66l-2 4s0 2 2 2l3-1v-5h-3z" fill="#FFB9A3"/><path d="M174 63c-2 3-3 4-6 5s-7-2-5-7c1-5 4-4 6-4s7 2 5 6z" fill="#FFB9A3"/><path d="M166 60h-2v2l-2 2v-4l1-4 1-1h9c3 0 4 1 3 3l1 1h-2l2 1c0 2-3 1-3 1s2 1 1 2c0 0-2 1-4-1l-1-1h-2-2v-1z" fill="#0C2340"/><path d="M186 92l-1 3 1-1h3l-1-2h-2zM147 95l1 2c1 2-1 5-3 2v-3l2-1z" fill="#FFB9A3"/><path d="M170 55h6c0 1 1 0 0 0-1-2-4 0-6 0zM171 54h-4l-3 1v1l4-2h3zM163 56l-2 2 1 4v-1-2l1-3zM178 59c-1-1-2-2-3-1h2l1 1z" fill="#0C2340"/><path d="M112 149c7 2 12 10 11 15-2 6-6 8-6 8l-1-2s3-5 3-8-5-6-5-6l-2-7z" fill="#0B43A4"/><path d="M97 216l-5 2h8v-2h-3zM114 215l1 3h-5l1-3h3z" fill="#0C2340"/><path d="M114 216h-3a508 508 0 00-3-42h2l7-2c1 6-2 32-3 44z" fill="#047F76"/><path d="M101 174c-3 4-3 36-5 42h4s4-20 12-42h-11z" fill="#009790"/><path opacity=".2" d="M113 174l-4 12-1-12h5z" fill="#5275A0"/><path d="M101 174c-3 4-3 36-5 42h4s4-20 12-42h-11z" fill="#009790"/><path d="M103 139s-2 8 3 8v2l4 1-1-3 1-6c0-2-5-5-7-2z" fill="#FFB9A3"/><path d="M90 130h-2v6h2v-6z" fill="#0C2340"/><path d="M94 130h-9l-2-1v-1l2-1h9l1 1-1 2z" fill="#0056EC"/><path d="M88 138l-1-4c1-1 4 1 3 2v3l-2-1z" fill="#FFB9A3"/><path d="M106 149c-8 0-8 3-12 2-5 0-4-10-3-14h-4s-5 23 13 19c-1 4 4 10-1 18 7 2 13 2 19 0-1-1 2-14-4-24-1-2-7-1-8-1z" fill="#0056EC"/><path d="M106 149c-8 0-8 3-12 2-5 0-4-10-3-14h-4s-5 23 13 19c-1 4 4 10-1 18 7 2 13 2 19 0-1-1 2-14-4-24-1-2-7-1-8-1z" fill="#0056EC"/><path d="M105 140l2 1v1h1v2l1 3c1-1 4-2 4-5 0-2 0-4-2-6h-6c-1 0-3 1-2 3l2 1z" fill="#EF832B"/><path d="M112 138h2l1 2v1h4l2 2v1l1 1 4 4 1 2v3c0 1-1 3-3 3-3 1-4 2-7 0l-2-1v-4l2-2v-2-1h-1-2v-2-1l-1-2h-2l-1-1v-1l2-2z" fill="#EF832B"/><path d="M112 141c4 1-1 5 1 7h2c2 0 1 2 1 4l1-3-3-1c-1 0-2 0-1-2v-2l1-1-2-2s-1 0 0 0zM103 136c3-1 7-1 9 1 0 1 1 0 0 0-2-2-6-3-9-1z" fill="#EF832B"/><path d="M206 146l-1 3 3 1 1-3-3-1z" fill="#FFB9A3"/><path d="M208 137c-7 3-4 11 1 10 2 0 3-7 3-7l-4-3z" fill="#FFB9A3"/><path d="M211 136l-1-1h-1v2h-1v1l1 1v2l-1 1 1 1v1h-1v4l4-1 2 1v-2h2v-2l1-1-2-2 1-1-1-1-2-1-2-2z" fill="#4A49CA"/><path d="M204 215l-5 3h9c1-1-1-3-1-3h-3zM220 213l-4 3 9-2-2-2-3 1z" fill="#0C2340"/><path d="M208 175c0 1-6 24 11 38l5-1s-6-5-9-15c-2-9 0-10 1-15 2-5 1-9 1-9l-9 2z" fill="#D8742A"/><path d="M200 175c-3 6-7 28 3 40h5s-4-4-5-14c0-10 3-14 4-18l4-9-11 1z" fill="#EF832B"/><path d="M197 135c-2 5-2 14 4 17l5-1s-8-4-6-15l-3-1z" fill="#0B43A4"/><path d="M184 133h4s-1 14 16 15c13 1 14 25 14 25-4 3-11 4-20 3 0 0 1-17-1-22 0 0-14-4-13-21z" fill="#0056EC"/><path d="M180 130c-1 1 2 2 4 3h3v-2s0-1 0 0h-3l-4-1zM197 135l-1-1 3 1 1-2v3l-3-1z" fill="#FFB9A3"/><path d="M213 138h2v2l1 1-1-3-2-1v1zM216 144v1l-1 1 1 1 1-2-1-1zM208 148c2 1 4 0 5-1h-5v1z" fill="#4A49CA"/><path d="M216 139c1 1 0 2-1 3h1l1-2-1-1z" fill="#4A49CA"/><path d="M116 31l-1-3 13-5-12 8z" fill="#0B43A4"/><path d="M117 29l11-6-8 8-3-2zM112 26l16-3-13 5-3-2z" fill="#5193F4"/><path d="M117 29l-1 2 2-1-1-1z" fill="#0056EC"/><path d="M115 31c-4-1-9 3-7 6h4l-1-1c-4 0-4 3-4 4 1 4 7 3 10 2" stroke="#C8DBFB" stroke-miterlimit="10" stroke-linecap="round" stroke-linejoin="round" stroke-dasharray="4 4"/></g><defs><clipPath id="clip0"><path fill="#fff" d="M0 0h280v239H0z"/></clipPath></defs></svg>